<svg width="268" height="270" viewBox="0 0 268 270" fill="none" xmlns="http://www.w3.org/2000/svg">
<g clip-path="url(#clip0)">
<path fill-rule="evenodd" clip-rule="evenodd" d="M264.072 157.146L188.287 113.455C187.66 113.093 186.953 112.902 186.24 112.902C184.22 112.902 182.513 114.344 182.182 116.334L171.283 181.758C171.278 181.783 171.295 181.808 171.294 181.833C170.81 181.907 170.335 182.038 169.9 182.289L116.563 213.041C115.675 213.551 115.146 214.467 115.142 215.49C115.142 215.493 115.141 215.497 115.141 215.5V221.007C115.141 221.164 115.204 221.304 115.297 221.414C115.513 222.073 115.946 222.627 116.563 222.982L194.86 268.123C196.307 268.958 197.927 269.376 199.549 269.376C201.169 269.376 202.791 268.958 204.235 268.123L255.51 238.562C256.272 238.123 256.727 237.336 256.727 236.457V231.433C256.727 230.632 256.335 229.922 255.692 229.468C256.486 229.083 257.079 228.343 257.232 227.42L267.671 164.756C268.174 161.735 266.727 158.677 264.072 157.146ZM117.197 214.135L170.536 183.384C171.383 182.897 172.436 182.897 173.283 183.384C173.284 183.384 173.284 183.384 173.285 183.386L252.543 229.081C252.543 229.081 252.543 229.081 252.545 229.081L254.874 230.424C254.874 230.424 254.874 230.424 254.875 230.425C255.241 230.637 255.46 231.015 255.46 231.436C255.46 231.857 255.241 232.234 254.875 232.446L202.391 262.706C200.638 263.717 198.459 263.717 196.705 262.706L162.837 243.178L162.406 242.34C161.99 241.533 161.354 240.865 160.567 240.411L153.32 236.233C152.594 235.813 151.755 235.565 150.934 235.602L149.708 235.608L117.197 216.864C116.704 216.579 116.41 216.07 116.41 215.502C116.407 214.932 116.703 214.42 117.197 214.135ZM161.28 242.921C160.413 242.824 159.565 242.559 158.806 242.122L151.784 238.073C151.282 237.784 150.896 237.359 150.599 236.87L150.942 236.868C151.524 236.861 152.156 237.023 152.687 237.33L159.934 241.507C160.512 241.841 160.975 242.328 161.28 242.92V242.921ZM254.875 237.467L203.601 267.029C201.102 268.472 197.994 268.469 195.495 267.029L117.196 221.886C116.807 221.664 116.541 221.302 116.445 220.871C116.438 220.837 116.418 220.814 116.407 220.784V217.841C116.463 217.877 116.506 217.926 116.563 217.96L149.053 236.692L149.262 237.131C149.673 237.989 150.324 238.694 151.15 239.168L158.172 243.216C159.222 243.822 160.413 244.172 161.619 244.229L162.173 244.256L196.07 263.8C197.142 264.419 198.345 264.727 199.547 264.727C200.75 264.727 201.952 264.418 203.024 263.8L255.459 233.569V236.457C255.46 236.878 255.241 237.255 254.875 237.467ZM266.421 164.549L255.982 227.214C255.784 228.403 254.517 228.758 253.703 228.288L172.606 181.532L183.433 116.54C183.663 115.165 184.844 114.167 186.24 114.167C186.738 114.167 187.214 114.296 187.654 114.549L263.436 158.24C265.638 159.512 266.836 162.045 266.421 164.549Z" fill="#FAFAFA"/>
<path fill-rule="evenodd" clip-rule="evenodd" d="M262.46 163.99C262.449 163.966 262.441 163.947 262.427 163.925C262.373 163.827 262.303 163.735 262.198 163.675L187.28 120.483C187.195 120.433 187.102 120.41 187.01 120.403C186.984 120.401 186.958 120.407 186.933 120.408C186.864 120.412 186.8 120.424 186.736 120.449C186.722 120.453 186.707 120.45 186.694 120.457C186.678 120.464 186.669 120.479 186.655 120.488C186.601 120.519 186.553 120.558 186.509 120.604C186.486 120.629 186.462 120.65 186.445 120.677C186.436 120.689 186.422 120.697 186.416 120.711C186.386 120.761 186.378 120.815 186.362 120.868C186.356 120.887 186.341 120.903 186.339 120.922L176.405 179.441C176.405 179.445 176.406 179.449 176.405 179.454C176.398 179.504 176.405 179.552 176.41 179.602C176.413 179.634 176.407 179.669 176.417 179.7C176.426 179.74 176.449 179.775 176.467 179.812C176.483 179.849 176.495 179.887 176.518 179.919C176.536 179.943 176.563 179.96 176.585 179.983C176.622 180.021 176.657 180.058 176.703 180.086C176.706 180.088 176.707 180.091 176.711 180.092L251.604 223.272L251.606 223.273L251.628 223.285C251.64 223.292 251.654 223.289 251.666 223.296C251.721 223.323 251.776 223.351 251.838 223.363C251.872 223.37 251.909 223.372 251.944 223.372C251.944 223.372 251.944 223.372 251.945 223.372C252.045 223.372 252.137 223.34 252.223 223.297C252.243 223.288 252.262 223.275 252.283 223.263C252.368 223.209 252.442 223.143 252.493 223.055C252.495 223.053 252.495 223.05 252.495 223.047C252.53 222.986 252.556 222.919 252.569 222.845L262.503 164.325C262.503 164.322 262.502 164.319 262.502 164.313C262.522 164.205 262.502 164.093 262.46 163.99ZM251.475 221.738L177.728 179.222L187.436 122.035L261.182 164.551L251.475 221.738Z" fill="#FAFAFA"/>
<path fill-rule="evenodd" clip-rule="evenodd" d="M150.267 229.159L173.943 242.808C174.29 243.01 174.689 243.117 175.092 243.117C175.496 243.117 175.893 243.01 176.242 242.808L190.854 234.384C191.209 234.178 191.423 233.809 191.423 233.4C191.423 232.989 191.209 232.62 190.853 232.414L167.175 218.762C166.477 218.361 165.575 218.361 164.877 218.763L150.267 227.185C149.911 227.391 149.696 227.759 149.696 228.17C149.696 228.582 149.908 228.952 150.267 229.159ZM165.51 219.858C165.824 219.675 166.229 219.678 166.542 219.856L190.029 233.397L175.608 241.712C175.295 241.889 174.891 241.889 174.578 241.712L151.091 228.17L165.51 219.858Z" fill="#FAFAFA"/>
<path fill-rule="evenodd" clip-rule="evenodd" d="M152.341 206.09C152.349 206.133 152.365 206.172 152.382 206.212C152.392 206.236 152.394 206.263 152.407 206.286C152.413 206.294 152.424 206.298 152.43 206.309C152.484 206.391 152.549 206.464 152.641 206.518L152.644 206.52C152.644 206.52 152.646 206.52 152.646 206.521L162.155 212.004C162.158 212.004 162.158 212.006 162.159 212.006L195.445 231.195C195.446 231.196 195.449 231.198 195.452 231.198L200.202 233.937C200.204 233.937 200.206 233.939 200.207 233.939L204.959 236.679C204.959 236.679 204.959 236.679 204.962 236.679L209.713 239.419C209.715 239.421 209.717 239.421 209.719 239.422L214.468 242.159H214.469C214.55 242.205 214.643 242.224 214.737 242.232C214.753 242.234 214.768 242.244 214.784 242.244C214.799 242.244 214.815 242.232 214.83 242.232C214.923 242.224 215.016 242.205 215.097 242.159H215.098L219.81 239.444C219.81 239.444 219.811 239.444 219.811 239.441L219.815 239.44L224.526 236.723C224.526 236.723 224.528 236.723 224.528 236.722L224.53 236.72L229.242 234.004C229.242 234.004 229.244 234.004 229.244 234.002L229.247 234.001L233.958 231.284C233.958 231.284 233.959 231.284 233.959 231.283L233.963 231.281L238.674 228.565C238.674 228.565 238.676 228.565 238.676 228.563L238.68 228.562C238.77 228.509 238.836 228.434 238.889 228.351C238.895 228.343 238.907 228.339 238.912 228.328C238.926 228.305 238.927 228.278 238.938 228.255C238.955 228.213 238.97 228.175 238.979 228.132C238.988 228.093 238.988 228.054 238.988 228.014C238.988 227.974 238.988 227.935 238.979 227.895C238.97 227.853 238.955 227.812 238.938 227.773C238.927 227.749 238.926 227.722 238.912 227.699C238.905 227.687 238.893 227.681 238.886 227.669C238.864 227.635 238.834 227.608 238.805 227.578C238.773 227.546 238.743 227.515 238.705 227.491C238.695 227.484 238.689 227.473 238.68 227.468L176.861 191.824C176.838 191.809 176.812 191.809 176.788 191.8C176.747 191.782 176.707 191.765 176.663 191.756C176.623 191.748 176.583 191.748 176.544 191.748C176.504 191.748 176.464 191.748 176.425 191.756C176.38 191.765 176.34 191.782 176.299 191.8C176.275 191.809 176.251 191.809 176.228 191.824L152.639 205.421C152.629 205.428 152.622 205.439 152.613 205.446C152.577 205.47 152.546 205.501 152.515 205.532C152.486 205.562 152.456 205.59 152.434 205.625C152.426 205.635 152.415 205.642 152.407 205.654C152.394 205.678 152.392 205.704 152.382 205.728C152.365 205.77 152.349 205.808 152.341 205.851C152.332 205.89 152.332 205.929 152.332 205.97C152.332 206.01 152.334 206.05 152.341 206.09ZM176.544 193.102L180.033 195.115L176.582 197.105L173.092 195.092L176.544 193.102ZM184.79 197.855L181.34 199.845L177.851 197.833L181.301 195.843L184.79 197.855ZM189.544 200.597L186.093 202.587L182.604 200.574L186.055 198.584L189.544 200.597ZM194.301 203.339L190.851 205.328L187.362 203.318L190.812 201.328L194.301 203.339ZM199.056 206.081L195.605 208.071L192.116 206.059L195.567 204.069L199.056 206.081ZM203.811 208.823L200.36 210.813L196.872 208.8L200.322 206.81L203.811 208.823ZM208.567 211.565L205.116 213.553L201.628 211.541L205.078 209.551L208.567 211.565ZM213.323 214.305L209.873 216.295L206.384 214.282L209.834 212.293L213.323 214.305ZM218.079 217.048L214.628 219.038L211.139 217.025L214.591 215.035L218.079 217.048ZM222.834 219.79L219.384 221.779L215.895 219.767L219.345 217.777L222.834 219.79ZM227.59 222.531L224.14 224.521L220.651 222.509L224.102 220.52L227.59 222.531ZM232.346 225.274L228.896 227.263L225.407 225.251L228.858 223.261L232.346 225.274ZM237.103 228.016L233.651 230.006L230.161 227.993L233.613 226.003L237.103 228.016ZM214.781 240.884L211.292 238.871L214.743 236.882L218.232 238.894L214.781 240.884ZM206.536 236.13L209.988 234.14L213.477 236.152L210.026 238.142L206.536 236.13ZM201.781 233.389L205.232 231.4L208.721 233.412L205.27 235.402L201.781 233.389ZM197.025 230.648L200.476 228.658L203.965 230.669L200.514 232.659L197.025 230.648ZM173.246 216.937L176.697 214.947L199.21 227.926L195.758 229.916L173.246 216.937ZM168.491 214.196L171.942 212.206L175.43 214.217L171.98 216.207L168.491 214.196ZM163.735 211.455L167.186 209.465L170.674 211.478L167.224 213.468L163.735 211.455ZM158.979 208.712L162.429 206.724L165.918 208.735L162.468 210.725L158.979 208.712ZM173.034 207.396L169.583 209.386L166.094 207.374L169.545 205.384L173.034 207.396ZM181.025 201.124C181.025 201.124 181.027 201.124 181.027 201.125L181.985 201.678L178.534 203.668L175.046 201.656L178.496 199.666L181.025 201.124ZM185.78 203.865C185.781 203.868 185.782 203.868 185.785 203.869L186.74 204.42L183.288 206.41L179.799 204.397L183.251 202.407L185.78 203.865ZM190.535 206.608C190.537 206.608 190.538 206.609 190.538 206.609L191.495 207.161L188.044 209.151L184.556 207.14L188.006 205.15L190.535 206.608ZM195.29 209.348C195.291 209.35 195.295 209.351 195.296 209.353L196.251 209.904L192.8 211.894L189.309 209.882L192.761 207.892L195.29 209.348ZM200.047 212.092C200.048 212.092 200.051 212.094 200.051 212.094L201.007 212.645L197.557 214.635L194.068 212.622L197.518 210.632L200.047 212.092ZM204.804 214.833L205.764 215.386L202.314 217.376L198.825 215.364L202.276 213.374L204.804 214.833ZM209.558 217.576C209.561 217.576 209.561 217.577 209.562 217.577L210.518 218.128L207.068 220.118L203.579 218.106L207.029 216.117L209.558 217.576ZM214.314 220.318L214.317 220.32L215.274 220.872L211.824 222.862L208.335 220.848L211.786 218.858L214.314 220.318ZM219.07 223.058C219.072 223.059 219.074 223.059 219.075 223.062L220.032 223.612L216.581 225.602L213.091 223.59L216.542 221.6L219.07 223.058ZM223.826 225.8L223.828 225.802L224.786 226.354L221.335 228.344L217.846 226.333L221.298 224.343L223.826 225.8ZM211.254 233.412L214.705 231.422L218.196 233.435L214.745 235.425L211.254 233.412ZM204.139 229.308L207.59 227.319L209.634 228.497C209.636 228.497 209.638 228.5 209.639 228.5L213.439 230.688L209.988 232.678L204.139 229.308ZM199.384 226.568L202.834 224.578L206.323 226.588L202.872 228.578L199.384 226.568ZM175.606 212.858L179.057 210.868L182.546 212.88L179.094 214.87L175.606 212.858ZM170.848 210.116L174.299 208.126L177.788 210.136L174.337 212.126L170.848 210.116ZM182.975 207.688C182.977 207.691 182.978 207.691 182.98 207.692L184.866 208.78L181.413 210.77L179.548 209.692C179.456 209.594 179.344 209.527 179.217 209.501L177.925 208.756L181.375 206.766L182.975 207.688ZM187.732 210.431L187.735 210.432L189.621 211.521L186.171 213.511L184.302 212.433C184.211 212.337 184.101 212.269 183.974 212.244L182.682 211.498L186.135 209.508L187.732 210.431ZM192.487 213.172C192.488 213.173 192.49 213.173 192.493 213.175L194.38 214.261L190.927 216.251L189.058 215.173C188.966 215.077 188.857 215.009 188.73 214.983L187.438 214.238L190.889 212.249L192.487 213.172ZM197.244 215.914C197.246 215.914 197.246 215.917 197.248 215.917L199.134 217.004L195.683 218.994L193.815 217.919C193.725 217.82 193.612 217.753 193.484 217.727L192.194 216.982L195.646 214.993L197.244 215.914ZM201.999 218.657C202.002 218.657 202.002 218.657 201.999 218.657L203.887 219.744L200.437 221.734L198.57 220.659C198.478 220.56 198.366 220.494 198.24 220.47L196.949 219.724L200.401 217.734L201.999 218.657ZM206.754 221.398C206.755 221.399 206.758 221.399 206.761 221.4L208.647 222.487L205.194 224.477L203.327 223.401C203.236 223.303 203.123 223.235 202.996 223.209L201.705 222.466L205.156 220.476L206.754 221.398ZM211.509 224.139C211.512 224.139 211.512 224.14 211.513 224.14L213.399 225.229L209.948 227.219L208.08 226.141C207.988 226.045 207.877 225.979 207.754 225.953L206.459 225.209L209.912 223.219L211.509 224.139ZM183.811 213.61L185.855 214.789C185.857 214.789 185.857 214.79 185.859 214.79L187.3 215.622L183.849 217.612L180.36 215.6L183.811 213.61ZM188.567 216.352L192.056 218.362L188.605 220.352L185.115 218.34L188.567 216.352ZM193.322 219.094L195.368 220.274C195.371 220.274 195.372 220.275 195.373 220.275L196.813 221.105L193.363 223.095L189.874 221.082L193.322 219.094ZM198.078 221.837L200.125 223.015H200.126L201.567 223.847L198.116 225.837L194.626 223.824L198.078 221.837ZM211.217 227.95L214.668 225.96L216.265 226.881C216.268 226.883 216.271 226.884 216.272 226.884L218.157 227.97L214.704 229.96L211.217 227.95ZM180.11 206.036L176.66 208.026L174.792 206.95C174.701 206.853 174.59 206.787 174.463 206.761L173.171 206.016L176.623 204.026L180.11 206.036ZM219.499 238.164L216.009 236.152L219.461 234.163L222.95 236.174L219.499 238.164ZM224.217 235.445L215.972 230.691L219.425 228.701L221.023 229.621C221.025 229.624 221.026 229.624 221.029 229.624L227.67 233.452L224.217 235.445ZM228.933 232.725L222.602 229.074L226.053 227.084L232.385 230.736L228.933 232.725ZM171.826 195.82L176.267 198.382C176.268 198.383 176.27 198.383 176.271 198.385L177.228 198.936L173.777 200.925L168.375 197.81L171.826 195.82ZM167.109 198.542L173.465 202.206L173.467 202.209L175.354 203.296L171.901 205.286L170.037 204.21C169.944 204.112 169.831 204.043 169.704 204.018L163.657 200.531L167.109 198.542ZM162.391 201.262L168.277 204.654L164.826 206.644L158.939 203.249L162.391 201.262ZM157.673 203.981L161.164 205.993L157.711 207.983L154.223 205.971L157.673 203.981Z" fill="#FAFAFA"/>
<path d="M63.6959 173.348L62.5115 173.463L62.6161 174.54L63.6982 174.538L63.6959 173.348ZM60.3453 138.847L60.3433 137.657L59.0343 137.659L59.1609 138.962L60.3453 138.847ZM71.8371 138.828L72.9932 138.545L72.7712 137.636L71.8352 137.638L71.8371 138.828ZM35.4368 0.347313L35.5554 -0.836758L34.0557 -0.987028L34.2575 0.506619L35.4368 0.347313ZM38.735 24.7627L38.6164 25.9468L40.116 26.0969L39.9143 24.6034L38.735 24.7627ZM32.4388 24.1323L32.5573 22.9482L31.1113 22.8034L31.2546 24.2496L32.4388 24.1323ZM32.7079 26.8501L32.6008 28.0353L34.034 28.1648L33.8922 26.7328L32.7079 26.8501ZM0.541992 23.9432L0.6491 22.758L-0.794234 22.6276L-0.641369 24.0687L0.541992 23.9432ZM12.4174 135.898L11.234 136.024L11.3474 137.092L12.4222 137.088L12.4174 135.898ZM24.0938 135.85L25.2803 135.759L25.1951 134.656L24.089 134.66L24.0938 135.85ZM24.3297 138.904L23.1432 138.995L23.2282 140.096L24.3317 140.094L24.3297 138.904ZM29.2192 138.895L30.3956 139.075L30.6044 137.703L29.2172 137.705L29.2192 138.895ZM16.9043 219.775L15.7278 219.596L15.5193 220.966L16.9045 220.965L16.9043 219.775ZM22.9563 219.774L22.9566 220.964L23.9761 220.964L24.1323 219.956L22.9563 219.774ZM33.7192 150.358L34.9092 150.351L32.5433 150.176L33.7192 150.358ZM34.1587 231.582L32.9687 231.588L32.9751 232.772L34.159 232.772L34.1587 231.582ZM40.2119 231.58L40.2122 232.77L41.4055 232.77L41.4019 231.577L40.2119 231.58ZM40.0511 178.144L40.0461 176.954L38.8576 176.959L38.8612 178.148L40.0511 178.144ZM81.3898 177.969L82.5459 177.687L82.3234 176.775L81.3848 176.779L81.3898 177.969ZM92.7602 224.557L91.6041 224.839L91.8257 225.747L92.7604 225.747L92.7602 224.557ZM98.8122 224.556L98.8125 225.746L100.324 225.745L99.969 224.276L98.8122 224.556ZM78.1119 138.818L78.1101 137.628L76.601 137.63L76.9552 139.097L78.1119 138.818ZM85.1573 138.807L85.1591 139.997L86.4422 139.995L86.3438 138.716L85.1573 138.807ZM84.9108 135.601L84.9059 134.411L83.6262 134.416L83.7243 135.692L84.9108 135.601ZM97.6378 135.548L97.6427 136.738L99.0243 136.733L98.8139 135.367L97.6378 135.548ZM81.5721 31.2665L82.7482 31.0853L82.6065 30.1651L81.6792 30.0813L81.5721 31.2665ZM52.5149 28.6402L51.3291 28.7395L51.4124 29.7354L52.4078 29.8254L52.5149 28.6402ZM52.3041 26.121L53.49 26.0218L53.4074 25.0356L52.4227 24.9369L52.3041 26.121ZM46.0591 25.4954L44.8798 25.6547L45.0056 26.5858L45.9405 26.6794L46.0591 25.4954ZM39.9344 138.88L39.9324 137.69L38.7408 137.692L38.7444 138.883L39.9344 138.88ZM54.0729 138.856L55.2566 138.734L55.146 137.664L54.0709 137.666L54.0729 138.856ZM57.6403 173.359L57.6425 174.549L58.9594 174.547L58.824 173.237L57.6403 173.359ZM5.14921 29.2552L5.25633 28.07L3.81298 27.9395L3.96585 29.3807L5.14921 29.2552ZM15.8978 130.586L14.7144 130.712L14.8278 131.78L15.9027 131.776L15.8978 130.586ZM93.0318 130.27L93.0367 131.46L94.4183 131.454L94.2079 130.088L93.0318 130.27ZM80.2524 172.126L63.6936 172.158L63.6982 174.538L80.257 174.506L80.2524 172.126ZM64.8803 173.233L61.5297 138.732L59.1609 138.962L62.5115 173.463L64.8803 173.233ZM60.3473 140.037L71.8391 140.018L71.8352 137.638L60.3433 137.657L60.3473 140.037ZM70.6811 139.11L79.0987 173.598L81.4108 173.034L72.9932 138.545L70.6811 139.11ZM42.8796 -0.102881L35.5554 -0.836758L35.3181 1.53138L42.6423 2.26526L42.8796 -0.102881ZM34.2575 0.506619L37.5557 24.922L39.9143 24.6034L36.6161 0.188007L34.2575 0.506619ZM38.8535 23.5786L32.5573 22.9482L32.3202 25.3164L38.6164 25.9468L38.8535 23.5786ZM31.2546 24.2496L31.5237 26.9674L33.8922 26.7328L33.623 24.015L31.2546 24.2496ZM32.8151 25.665L0.6491 22.758L0.434884 25.1283L32.6008 28.0353L32.8151 25.665ZM-0.641369 24.0687L11.234 136.024L13.6007 135.772L1.72535 23.8176L-0.641369 24.0687ZM12.4222 137.088L24.0987 137.04L24.089 134.66L12.4125 134.708L12.4222 137.088ZM22.9074 135.942L23.1432 138.995L25.5161 138.812L25.2803 135.759L22.9074 135.942ZM24.3317 140.094L29.2212 140.085L29.2172 137.705L24.3276 137.714L24.3317 140.094ZM28.0427 138.716L15.7278 219.596L18.0807 219.954L30.3956 139.075L28.0427 138.716ZM16.9045 220.965L22.9566 220.964L22.9561 218.584L16.9041 218.585L16.9045 220.965ZM24.1323 219.956L34.8951 150.54L32.5433 150.176L21.7804 219.592L24.1323 219.956ZM32.5292 150.364L32.9687 231.588L35.3487 231.575L34.9092 150.351L32.5292 150.364ZM34.159 232.772L40.2122 232.77L40.2117 230.39L34.1585 230.392L34.159 232.772ZM41.4019 231.577L41.2411 178.141L38.8612 178.148L39.022 231.584L41.4019 231.577ZM40.0562 179.334L81.3949 179.159L81.3848 176.779L40.0461 176.954L40.0562 179.334ZM80.2338 178.251L91.6041 224.839L93.9163 224.275L82.5459 177.687L80.2338 178.251ZM92.7604 225.747L98.8125 225.746L98.812 223.366L92.76 223.367L92.7604 225.747ZM99.969 224.276L79.2687 138.539L76.9552 139.097L97.6555 224.835L99.969 224.276ZM78.1137 140.008L85.1591 139.997L85.1555 137.617L78.1101 137.628L78.1137 140.008ZM86.3438 138.716L86.0973 135.509L83.7243 135.692L83.9708 138.899L86.3438 138.716ZM84.9157 136.791L97.6427 136.738L97.6329 134.358L84.9059 134.411L84.9157 136.791ZM98.8139 135.367L82.7482 31.0853L80.396 31.4477L96.4617 135.73L98.8139 135.367ZM81.6792 30.0813L52.6221 27.4551L52.4078 29.8254L81.465 32.4516L81.6792 30.0813ZM53.7008 28.541L53.49 26.0218L51.1183 26.2203L51.3291 28.7395L53.7008 28.541ZM52.4227 24.9369L46.1777 24.3113L45.9405 26.6794L52.1855 27.3051L52.4227 24.9369ZM47.2384 25.3361L43.9402 0.921876L41.5816 1.2405L44.8798 25.6547L47.2384 25.3361ZM41.228 173.388L41.1244 138.876L38.7444 138.883L38.848 173.395L41.228 173.388ZM39.9364 140.07L54.0749 140.046L54.0709 137.666L39.9324 137.69L39.9364 140.07ZM52.8892 138.979L56.4566 173.481L58.824 173.237L55.2566 138.734L52.8892 138.979ZM57.6381 172.169L40.0359 172.201L40.0402 174.581L57.6425 174.549L57.6381 172.169ZM78.5966 34.6987L5.25633 28.07L5.04209 30.4403L78.3824 37.069L78.5966 34.6987ZM3.96585 29.3807L14.7144 130.712L17.0812 130.461L6.33257 29.1296L3.96585 29.3807ZM15.9027 131.776L93.0367 131.46L93.0269 129.08L15.8929 129.396L15.9027 131.776ZM94.2079 130.088L79.6656 35.7026L77.3134 36.065L91.8557 130.451L94.2079 130.088Z" fill="#FAFAFA"/>
<path fill-rule="evenodd" clip-rule="evenodd" d="M83.4469 255.545L73.918 239.189L61.7091 234.135L65.2824 205.589L79.5758 177.935L85.2336 171.986L69.7491 155.037L61.7091 130.951L70.3447 110.137L115.309 112.515L162.656 123.221L168.016 140.468L161.762 158.309L148.065 171.69L135.558 175.259L140.025 177.636L151.936 173.176L168.016 195.478L172.482 221.944L169.802 237.405L157.594 241.272L151.936 255.545L116.846 260.005L83.4469 255.545Z" fill="#4A90E2"/>
<path fill-rule="evenodd" clip-rule="evenodd" d="M104.571 154.626C107.777 154.626 110.377 150.42 110.377 145.23C110.377 140.041 107.777 135.835 104.571 135.835C101.366 135.835 98.7658 140.041 98.7658 145.23C98.7658 150.42 101.364 154.626 104.571 154.626ZM130.194 154.626C133.4 154.626 136.002 150.42 136.002 145.23C136.002 140.041 133.4 135.835 130.194 135.835C126.992 135.835 124.391 140.041 124.391 145.23C124.391 150.42 126.988 154.626 130.194 154.626ZM118.096 171.68C136.869 171.634 148.77 158.742 148.921 158.616C149.579 157.898 149.542 156.782 148.823 156.115C148.105 155.452 146.989 155.491 146.321 156.207C146.316 156.207 145.681 156.904 144.372 158.02C140.433 161.395 130.879 168.155 118.092 168.142C109.489 168.142 102.253 165.602 97.1649 163.048C94.6219 161.772 92.6197 160.499 91.2654 159.551C89.9099 158.603 89.2512 158.014 89.2464 158.017C88.5091 157.372 87.3895 157.447 86.7463 158.186C86.1031 158.917 86.1793 160.034 86.9166 160.681C87.0738 160.8 99.4638 171.651 118.096 171.68ZM154.257 171.929C166.557 161.398 174.363 145.777 174.364 128.324C174.361 96.6005 148.614 70.8899 116.844 70.8863C85.0787 70.8899 59.3317 96.6005 59.3269 128.325C59.3293 146.104 67.4193 161.988 80.1189 172.525C63.784 186.035 59.7986 209.254 59.7724 234.575C59.9463 237.01 61.3006 237.711 61.8759 238.169C63.0956 238.94 64.1985 239.279 65.4933 239.708C67.3967 240.307 69.5633 240.859 71.1499 241.369C71.4036 241.449 71.6394 241.529 71.8538 241.608C72.6066 250.88 77.1864 257.208 83.9531 260.009C90.9985 263.041 99.6484 263.163 109.53 263.2C111.959 263.2 114.469 263.187 117.047 263.187C128.84 263.161 139.248 263.267 147.601 260.507C151.768 259.113 155.497 256.866 158.171 253.377C160.574 250.271 162.026 246.327 162.546 241.611C163.627 241.23 165.469 240.654 167.094 240.202C168.387 239.816 169.631 239.429 170.777 238.944C171.352 238.685 171.904 238.428 172.546 237.95C173.096 237.493 174.23 236.634 174.322 234.579C174.313 220.664 173.39 207.553 169.912 196.171C166.974 186.522 162.022 178.073 154.257 171.929ZM66.5832 132.227L76.4646 117.534C76.4646 117.534 87.1787 125.28 109.866 130.345C132.552 135.412 153.918 130.103 153.918 130.103C153.918 130.103 159.952 141.334 164.372 145.134C161.169 154.151 155.45 161.962 148.085 167.785L147.886 167.666L145.989 169.046C137.691 175.062 127.562 178.647 116.544 178.681C116.25 178.677 115.957 178.664 115.664 178.656C115.073 178.647 114.492 178.613 113.907 178.589C88.7259 177.102 68.5425 157.245 66.5832 132.227ZM131.82 183.78C131.283 184.779 130.583 185.787 129.594 186.702C127.412 188.712 123.871 190.547 117.213 190.571C108.114 190.494 104.589 187.432 102.621 184.688C102.452 184.443 102.316 184.196 102.171 183.947C105.878 184.895 109.725 185.478 113.676 185.674C114.155 185.699 114.644 185.708 115.129 185.718C115.554 185.73 115.973 185.761 116.401 185.761C116.45 185.761 116.501 185.753 116.549 185.753C116.649 185.756 116.746 185.761 116.842 185.761C122.025 185.759 127.043 185.063 131.82 183.78ZM161.96 234.343C161.633 234.444 161.323 234.553 161.012 234.653L156.717 203.403C156.717 203.403 155.741 238.095 155.62 239.466C155.332 243.943 154.204 246.92 152.559 249.059C150.132 252.235 146.011 254.109 139.834 255.102C133.715 256.092 125.877 256.117 117.049 256.113C114.448 256.113 111.936 256.125 109.532 256.125C99.777 256.16 91.7466 255.761 86.8035 253.531C81.9961 251.253 79.4138 248.2 78.8278 239.498C77.2233 227.154 78.6146 203.403 78.6146 203.403L74.2873 234.9L74.5291 235.061C72.8067 234.408 70.9605 233.973 69.1429 233.413C68.2888 233.169 67.4836 232.922 66.8619 232.704C67.0525 207.982 71.6394 187.574 85.8446 176.965C88.3531 178.541 91.0045 179.908 93.7524 181.087C94.0311 182.857 94.7625 185.699 96.7719 188.669C99.8759 193.353 106.398 197.726 117.213 197.646C117.32 197.646 117.428 197.646 117.534 197.646C128.012 197.646 134.373 193.161 137.339 188.392C139.191 185.478 139.909 182.685 140.197 180.814C143.058 179.544 145.792 178.053 148.383 176.349C155.682 181.509 160.241 188.866 163.139 198.237C166.137 208.009 167.153 219.86 167.233 232.733C165.924 233.201 163.828 233.772 161.96 234.343Z" fill="#FAFAFA"/>
</g>
<defs>
<clipPath id="clip0">
<rect width="268" height="270" fill="white"/>
</clipPath>
</defs>
</svg>
